<svg id="calendar" xmlns="http://www.w3.org/2000/svg" width="512" height="512" viewBox="0 0 512 512">
  <path id="Path_1" data-name="Path 1" d="M452,40H428V0H388V40H124V0H84V40H60A60.068,60.068,0,0,0,0,100V452a60.068,60.068,0,0,0,60,60H452a60.068,60.068,0,0,0,60-60V100A60.068,60.068,0,0,0,452,40Zm20,412a20.023,20.023,0,0,1-20,20H60a20.023,20.023,0,0,1-20-20V188H472Zm0-304H40V100A20.023,20.023,0,0,1,60,80H84v40h40V80H388v40h40V80h24a20.023,20.023,0,0,1,20,20Z" fill="#000"/>
  <path id="Path_2" data-name="Path 2" d="M76,230h40v40H76Zm80,0h40v40H156Zm80,0h40v40H236Zm80,0h40v40H316Zm80,0h40v40H396ZM76,310h40v40H76Zm80,0h40v40H156Zm80,0h40v40H236Zm80,0h40v40H316ZM76,390h40v40H76Zm80,0h40v40H156Zm80,0h40v40H236Zm80,0h40v40H316Zm80-80h40v40H396Z" fill="#000"/>
</svg>
