<svg viewBox="0 0 512 512" xmlns="http://www.w3.org/2000/svg"><path d="M200.047 487.52L130.28 302.652a22.256 22.256 0 00-20.85-14.333h-.024a22.256 22.256 0 00-20.81 14.289L18.19 487.468c-3.555 9.334 1.129 19.783 10.464 23.337 9.336 3.557 19.781-1.13 23.337-10.464l13.099-34.392h88.157l12.959 34.34c2.734 7.242 9.615 11.706 16.924 11.704 2.12 0 4.28-.376 6.381-1.169 9.346-3.527 14.063-13.961 10.536-23.304zM78.866 429.78l30.505-80.094 30.226 80.094zM357.378 512c-20.31 0-21.498-.204-22.806-.427a18.084 18.084 0 01-15.037-17.826V306.404c0-9.988 8.097-18.085 18.085-18.085s18.085 8.097 18.085 18.085V475.82c12.746-.001 77.118-.065 93.828-.158h.104c9.941 0 18.027 8.03 18.082 17.984.055 9.988-7.996 18.13-17.984 18.186-21.455.119-82.388.168-92.357.168zM117.783 223.67c-61.666 0-111.835-50.169-111.835-111.835S56.117 0 117.783 0c22.409 0 44.036 6.609 62.541 19.112 8.276 5.591 10.452 16.833 4.86 25.109-5.593 8.277-16.834 10.454-25.109 4.86-12.503-8.447-27.126-12.911-42.292-12.911-41.722 0-75.665 33.943-75.665 75.665S76.061 187.5 117.783 187.5c25.611 0 55.019-15.47 61.526-57.581h-36.687c-9.988 0-18.085-8.097-18.085-18.085s8.097-18.085 18.085-18.085h56.09c9.988 0 18.085 8.097 18.085 18.085.001 65.848-40.716 111.836-99.014 111.836z" fill="#fed402"/><circle cx="385.791" cy="120.261" fill="#f9f7f8" r="120.261"/><path d="M422.846 5.826c28.402 21.997 46.691 56.426 46.691 95.131 0 66.418-53.843 120.261-120.261 120.261a120.16 120.16 0 01-37.055-5.826c20.337 15.751 45.856 25.13 73.569 25.13 66.418 0 120.261-53.843 120.261-120.261.001-53.487-34.921-98.811-83.205-114.435z" fill="#e5e1e5"/><path d="M385.791 104.7a7.725 7.725 0 01-7.726-7.726V18.101a7.726 7.726 0 1115.452 0v78.873a7.726 7.726 0 01-7.726 7.726zM443.66 206.203a7.705 7.705 0 01-5.876-2.705l-34.649-40.521a7.725 7.725 0 01.851-10.893 7.725 7.725 0 0110.893.851l34.649 40.521a7.725 7.725 0 01-5.868 12.747zM327.448 206.759a7.693 7.693 0 01-5.017-1.854 7.725 7.725 0 01-.851-10.893l37.904-44.328c2.774-3.243 7.65-3.625 10.893-.851s3.625 7.65.851 10.893l-37.904 44.328a7.709 7.709 0 01-5.876 2.705zM422.311 122a7.727 7.727 0 01-7.043-4.541 7.725 7.725 0 013.851-10.225l58.813-26.63a7.726 7.726 0 0110.225 3.851 7.725 7.725 0 01-3.851 10.225l-58.813 26.63a7.702 7.702 0 01-3.182.69zM351.928 123.203a7.686 7.686 0 01-3.182-.69L293.39 97.449a7.725 7.725 0 01-3.851-10.225 7.723 7.723 0 0110.225-3.851l55.355 25.064a7.725 7.725 0 013.851 10.225 7.725 7.725 0 01-7.042 4.541z" fill="#b5adb6"/><g fill="#7a6d79"><path d="M382.158 78.968l-38.927 28.282a6.181 6.181 0 00-2.245 6.911l14.869 45.761a6.18 6.18 0 005.879 4.271h48.116a6.182 6.182 0 005.879-4.271l14.869-45.761a6.183 6.183 0 00-2.245-6.911l-38.927-28.282a6.184 6.184 0 00-7.268 0zM388.819 31.354l34.793-25.279C411.718 2.138 399.005 0 385.791 0s-25.927 2.138-37.82 6.075l34.793 25.279a5.153 5.153 0 006.055 0zM288.891 49.035c-14.801 20.102-23.503 44.972-23.359 71.883l.007.003L300.3 95.667a5.151 5.151 0 001.871-5.759zM349.272 234.869l-13.289-40.901a5.151 5.151 0 00-4.899-3.559h-42.979c14.922 20.744 36.287 36.539 61.167 44.46z"/></g><path d="M344.807 221.129a119.965 119.965 0 01-32.535-5.723c4.219 2.604 12.023 10.942 36.992 19.44zM422.31 234.869c24.88-7.921 46.245-23.716 61.167-44.461h-42.979a5.151 5.151 0 00-4.899 3.559zM471.282 95.666l34.761 25.255.007-.003c.144-26.911-8.558-51.781-23.359-71.883l-13.28 40.873a5.15 5.15 0 001.871 5.758z" fill="#685e68"/></svg>