<svg xmlns="http://www.w3.org/2000/svg" viewBox="0 0 15.951 16"><g fill="#4c75f2"><path data-name="Path 1" d="M6.951 2a2 2 0 11-2-2 2 2 0 012 2z"/><path data-name="Path 2" d="M9.751 1.8c-.2-.5-1.7-.1-2 .5a3.5 3.5 0 01-1.2 1.9 3.333 3.333 0 01-1.6.5 1.54 1.54 0 00.2 1.6 6.812 6.812 0 01.7 2.8c.1 1.3-.5 2.4-2.3 3.2a1.425 1.425 0 00-1 1.9 7.655 7.655 0 003.1-1.2 5.085 5.085 0 001.8-2.3 9.363 9.363 0 010 1.9 10.9 10.9 0 01-.4 2.2.906.906 0 00.9 1.2.945.945 0 001-1l.3-1.9a12.385 12.385 0 00-.8-6.3c0-.1-.1-.1-.1-.2a2.671 2.671 0 01.6-3c.3-.4 1.2-1.2.8-1.8z"/><path data-name="Path 3" d="M11.951 0v10h1V4l3-2z"/><path data-name="Path 4" d="M15.951 10a1 1 0 11-1-1 1 1 0 011 1z"/><path data-name="Path 5" d="M.951 8.4l3.7-3.7-.7-.3L.151 8a1.868 1.868 0 00.1 1.7c.5 1 1.6.3 1.6.3.4-.2.2-.4 0-.6s-.9-1-.9-1z"/></g></svg>