<svg xmlns="http://www.w3.org/2000/svg" viewBox="0 0 37.502 48.736"><g fill="#9acd32"><path data-name="Path 6" d="M31.685 22.039l-6.935-3.413-1.71-5.89 2.493 4.419.013.006.967-2.19a3.088 3.088 0 00-1.577-4.072l-5.039-2.224a3.088 3.088 0 00-3.763 1.033l-5.487.457a2.145 2.145 0 00-1.521.828l-5.329 6.912a2.146 2.146 0 003.4 2.62l4.75-6.162 2.142-.178-4.337 9.82a8.765 8.765 0 00-.714 2.781l-.566 6.5-7.171 4.167a2.586 2.586 0 00-.941 3.55 2.541 2.541 0 003.445.872l8.362-4.859a2.542 2.542 0 001.255-1.979l.709-8.217 1.6.7 2.306 6.856 1.05 12.035a2.541 2.541 0 005.063-.442l-1.077-12.336a2.528 2.528 0 00-.123-.589l-1.913-5.676 1.427-3.23-1.193-.587a2.81 2.81 0 01-1.978-2.357l-.374-7.263 1.974 6.8a2.145 2.145 0 001.113 1.327l7.83 3.853a2.145 2.145 0 002.9-1.036 2.178 2.178 0 00-1.051-2.836zm0 0"/><path data-name="Path 7" d="M27.412.388a4.535 4.535 0 102.316 5.98 4.534 4.534 0 00-2.316-5.98zm0 0"/><path data-name="Path 8" d="M37.502 44.561a4.175 4.175 0 11-4.174-4.174 4.175 4.175 0 014.174 4.174zm0 0"/></g></svg>